%TF.GenerationSoftware,KiCad,Pcbnew,9.0.7*%
%TF.CreationDate,2026-05-03T23:30:29-04:00*%
%TF.ProjectId,KVSAR RAK Internal Contacts,4b565341-5220-4524-914b-20496e746572,rev?*%
%TF.SameCoordinates,Original*%
%TF.FileFunction,Legend,Top*%
%TF.FilePolarity,Positive*%
%FSLAX46Y46*%
G04 Gerber Fmt 4.6, Leading zero omitted, Abs format (unit mm)*
G04 Created by KiCad (PCBNEW 9.0.7) date 2026-05-03 23:30:29*
%MOMM*%
%LPD*%
G01*
G04 APERTURE LIST*
%ADD10C,0.150000*%
%ADD11C,0.120000*%
G04 APERTURE END LIST*
D10*
X152066666Y-91104819D02*
X152066666Y-91819104D01*
X152066666Y-91819104D02*
X152019047Y-91961961D01*
X152019047Y-91961961D02*
X151923809Y-92057200D01*
X151923809Y-92057200D02*
X151780952Y-92104819D01*
X151780952Y-92104819D02*
X151685714Y-92104819D01*
X152971428Y-91438152D02*
X152971428Y-92104819D01*
X152733333Y-91057200D02*
X152495238Y-91771485D01*
X152495238Y-91771485D02*
X153114285Y-91771485D01*
X146986666Y-91036819D02*
X146986666Y-91751104D01*
X146986666Y-91751104D02*
X146939047Y-91893961D01*
X146939047Y-91893961D02*
X146843809Y-91989200D01*
X146843809Y-91989200D02*
X146700952Y-92036819D01*
X146700952Y-92036819D02*
X146605714Y-92036819D01*
X147415238Y-91132057D02*
X147462857Y-91084438D01*
X147462857Y-91084438D02*
X147558095Y-91036819D01*
X147558095Y-91036819D02*
X147796190Y-91036819D01*
X147796190Y-91036819D02*
X147891428Y-91084438D01*
X147891428Y-91084438D02*
X147939047Y-91132057D01*
X147939047Y-91132057D02*
X147986666Y-91227295D01*
X147986666Y-91227295D02*
X147986666Y-91322533D01*
X147986666Y-91322533D02*
X147939047Y-91465390D01*
X147939047Y-91465390D02*
X147367619Y-92036819D01*
X147367619Y-92036819D02*
X147986666Y-92036819D01*
X152066666Y-86024819D02*
X152066666Y-86739104D01*
X152066666Y-86739104D02*
X152019047Y-86881961D01*
X152019047Y-86881961D02*
X151923809Y-86977200D01*
X151923809Y-86977200D02*
X151780952Y-87024819D01*
X151780952Y-87024819D02*
X151685714Y-87024819D01*
X152447619Y-86024819D02*
X153066666Y-86024819D01*
X153066666Y-86024819D02*
X152733333Y-86405771D01*
X152733333Y-86405771D02*
X152876190Y-86405771D01*
X152876190Y-86405771D02*
X152971428Y-86453390D01*
X152971428Y-86453390D02*
X153019047Y-86501009D01*
X153019047Y-86501009D02*
X153066666Y-86596247D01*
X153066666Y-86596247D02*
X153066666Y-86834342D01*
X153066666Y-86834342D02*
X153019047Y-86929580D01*
X153019047Y-86929580D02*
X152971428Y-86977200D01*
X152971428Y-86977200D02*
X152876190Y-87024819D01*
X152876190Y-87024819D02*
X152590476Y-87024819D01*
X152590476Y-87024819D02*
X152495238Y-86977200D01*
X152495238Y-86977200D02*
X152447619Y-86929580D01*
X146986666Y-85956819D02*
X146986666Y-86671104D01*
X146986666Y-86671104D02*
X146939047Y-86813961D01*
X146939047Y-86813961D02*
X146843809Y-86909200D01*
X146843809Y-86909200D02*
X146700952Y-86956819D01*
X146700952Y-86956819D02*
X146605714Y-86956819D01*
X147986666Y-86956819D02*
X147415238Y-86956819D01*
X147700952Y-86956819D02*
X147700952Y-85956819D01*
X147700952Y-85956819D02*
X147605714Y-86099676D01*
X147605714Y-86099676D02*
X147510476Y-86194914D01*
X147510476Y-86194914D02*
X147415238Y-86242533D01*
D11*
%TO.C,J4*%
X151070000Y-92650000D02*
X152400000Y-92650000D01*
X151070000Y-93980000D02*
X151070000Y-92650000D01*
X151070000Y-95250000D02*
X151070000Y-95310000D01*
X151070000Y-95250000D02*
X153730000Y-95250000D01*
X151070000Y-95310000D02*
X153730000Y-95310000D01*
X153730000Y-95250000D02*
X153730000Y-95310000D01*
%TO.C,J2*%
X149070000Y-93980000D02*
G75*
G02*
X145570000Y-93980000I-1750000J0D01*
G01*
X145570000Y-93980000D02*
G75*
G02*
X149070000Y-93980000I1750000J0D01*
G01*
%TO.C,J3*%
X151070000Y-87570000D02*
X152400000Y-87570000D01*
X151070000Y-88900000D02*
X151070000Y-87570000D01*
X151070000Y-90170000D02*
X151070000Y-90230000D01*
X151070000Y-90170000D02*
X153730000Y-90170000D01*
X151070000Y-90230000D02*
X153730000Y-90230000D01*
X153730000Y-90170000D02*
X153730000Y-90230000D01*
%TO.C,J1*%
X149070000Y-88900000D02*
G75*
G02*
X145570000Y-88900000I-1750000J0D01*
G01*
X145570000Y-88900000D02*
G75*
G02*
X149070000Y-88900000I1750000J0D01*
G01*
%TD*%
M02*
