%TF.GenerationSoftware,KiCad,Pcbnew,9.0.7*%
%TF.CreationDate,2026-05-04T00:24:12-04:00*%
%TF.ProjectId,Model KV Charger Board,4d6f6465-6c20-44b5-9620-436861726765,rev?*%
%TF.SameCoordinates,Original*%
%TF.FileFunction,Legend,Top*%
%TF.FilePolarity,Positive*%
%FSLAX46Y46*%
G04 Gerber Fmt 4.6, Leading zero omitted, Abs format (unit mm)*
G04 Created by KiCad (PCBNEW 9.0.7) date 2026-05-04 00:24:12*
%MOMM*%
%LPD*%
G01*
G04 APERTURE LIST*
%ADD10C,0.150000*%
%ADD11C,0.120000*%
G04 APERTURE END LIST*
D10*
X146986666Y-101596819D02*
X146986666Y-102311104D01*
X146986666Y-102311104D02*
X146939047Y-102453961D01*
X146939047Y-102453961D02*
X146843809Y-102549200D01*
X146843809Y-102549200D02*
X146700952Y-102596819D01*
X146700952Y-102596819D02*
X146605714Y-102596819D01*
X147415238Y-101692057D02*
X147462857Y-101644438D01*
X147462857Y-101644438D02*
X147558095Y-101596819D01*
X147558095Y-101596819D02*
X147796190Y-101596819D01*
X147796190Y-101596819D02*
X147891428Y-101644438D01*
X147891428Y-101644438D02*
X147939047Y-101692057D01*
X147939047Y-101692057D02*
X147986666Y-101787295D01*
X147986666Y-101787295D02*
X147986666Y-101882533D01*
X147986666Y-101882533D02*
X147939047Y-102025390D01*
X147939047Y-102025390D02*
X147367619Y-102596819D01*
X147367619Y-102596819D02*
X147986666Y-102596819D01*
X141906666Y-101446819D02*
X141906666Y-102161104D01*
X141906666Y-102161104D02*
X141859047Y-102303961D01*
X141859047Y-102303961D02*
X141763809Y-102399200D01*
X141763809Y-102399200D02*
X141620952Y-102446819D01*
X141620952Y-102446819D02*
X141525714Y-102446819D01*
X142811428Y-101780152D02*
X142811428Y-102446819D01*
X142573333Y-101399200D02*
X142335238Y-102113485D01*
X142335238Y-102113485D02*
X142954285Y-102113485D01*
X141906666Y-96366819D02*
X141906666Y-97081104D01*
X141906666Y-97081104D02*
X141859047Y-97223961D01*
X141859047Y-97223961D02*
X141763809Y-97319200D01*
X141763809Y-97319200D02*
X141620952Y-97366819D01*
X141620952Y-97366819D02*
X141525714Y-97366819D01*
X142287619Y-96366819D02*
X142906666Y-96366819D01*
X142906666Y-96366819D02*
X142573333Y-96747771D01*
X142573333Y-96747771D02*
X142716190Y-96747771D01*
X142716190Y-96747771D02*
X142811428Y-96795390D01*
X142811428Y-96795390D02*
X142859047Y-96843009D01*
X142859047Y-96843009D02*
X142906666Y-96938247D01*
X142906666Y-96938247D02*
X142906666Y-97176342D01*
X142906666Y-97176342D02*
X142859047Y-97271580D01*
X142859047Y-97271580D02*
X142811428Y-97319200D01*
X142811428Y-97319200D02*
X142716190Y-97366819D01*
X142716190Y-97366819D02*
X142430476Y-97366819D01*
X142430476Y-97366819D02*
X142335238Y-97319200D01*
X142335238Y-97319200D02*
X142287619Y-97271580D01*
X146986666Y-96516819D02*
X146986666Y-97231104D01*
X146986666Y-97231104D02*
X146939047Y-97373961D01*
X146939047Y-97373961D02*
X146843809Y-97469200D01*
X146843809Y-97469200D02*
X146700952Y-97516819D01*
X146700952Y-97516819D02*
X146605714Y-97516819D01*
X147986666Y-97516819D02*
X147415238Y-97516819D01*
X147700952Y-97516819D02*
X147700952Y-96516819D01*
X147700952Y-96516819D02*
X147605714Y-96659676D01*
X147605714Y-96659676D02*
X147510476Y-96754914D01*
X147510476Y-96754914D02*
X147415238Y-96802533D01*
D11*
%TO.C,J2*%
X148520000Y-104140000D02*
G75*
G02*
X146120000Y-104140000I-1200000J0D01*
G01*
X146120000Y-104140000D02*
G75*
G02*
X148520000Y-104140000I1200000J0D01*
G01*
%TO.C,J4*%
X143690000Y-104140000D02*
G75*
G02*
X140790000Y-104140000I-1450000J0D01*
G01*
X140790000Y-104140000D02*
G75*
G02*
X143690000Y-104140000I1450000J0D01*
G01*
%TO.C,J3*%
X143690000Y-99060000D02*
G75*
G02*
X140790000Y-99060000I-1450000J0D01*
G01*
X140790000Y-99060000D02*
G75*
G02*
X143690000Y-99060000I1450000J0D01*
G01*
%TO.C,J1*%
X148520000Y-99060000D02*
G75*
G02*
X146120000Y-99060000I-1200000J0D01*
G01*
X146120000Y-99060000D02*
G75*
G02*
X148520000Y-99060000I1200000J0D01*
G01*
%TD*%
M02*
